<svg width="16" height="23" viewBox="0 0 16 23" fill="none" xmlns="http://www.w3.org/2000/svg">
<mask id="mask0_563_4464" style="mask-type:luminance" maskUnits="userSpaceOnUse" x="0" y="0" width="16" height="23">
<path d="M15.6937 0H0.306396V23H15.6937V0Z" fill="white"/>
</mask>
<g mask="url(#mask0_563_4464)">
<path d="M8.27939 0.000377598C7.41795 0.000627966 6.59186 0.342428 5.98271 0.95064C5.37359 1.55885 5.03127 2.3837 5.03102 3.24383V4.71727H3.55534C3.12845 4.71692 2.70567 4.80062 2.3112 4.96358C1.91674 5.12654 1.55833 5.36558 1.25648 5.667C0.954623 5.96839 0.715257 6.32629 0.552068 6.72015C0.388881 7.11404 0.305076 7.53618 0.30545 7.96243V11.2047H5.03025V14.1516H3.55458C2.69289 14.1515 1.86644 14.4932 1.25698 15.1014C0.647533 15.7097 0.304989 16.5346 0.304688 17.395V22.9986H3.5561C3.98259 22.9984 4.40485 22.9144 4.7988 22.7511C5.19273 22.588 5.5506 22.3489 5.85202 22.0477C6.15342 21.7464 6.39242 21.3888 6.5554 20.9952C6.71836 20.6016 6.8021 20.18 6.80182 19.7542H6.80598V17.6134L6.79729 17.6145V3.97583L6.80448 3.97753V3.2444C6.80522 2.85348 6.96081 2.47873 7.23728 2.20193C7.51374 1.92514 7.88864 1.76879 8.28015 1.76699H13.9235V3.2444C13.9223 3.63514 13.7662 4.00951 13.4893 4.28562C13.2124 4.56173 12.8372 4.71714 12.4459 4.71784H7.47232V6.48635H12.4451C13.3066 6.4864 14.1328 6.14476 14.742 5.53661C15.3511 4.92845 15.6934 4.1036 15.6935 3.24346V0L8.27939 0.000377598ZM5.03102 9.43605H2.07853V7.96261C2.07918 7.57123 2.23494 7.19603 2.51182 6.91897C2.78868 6.64194 3.16413 6.48557 3.5561 6.48408H5.03178L5.03102 9.43605ZM5.03102 19.7558C5.03037 20.1465 4.87473 20.5211 4.59818 20.7974C4.32161 21.0739 3.94665 21.2297 3.55534 21.2307H2.07777V17.396C2.07812 17.005 2.23397 16.6302 2.51104 16.3539C2.78813 16.0776 3.16374 15.9224 3.55534 15.9226H5.03102V19.7558ZM7.47232 11.2046H11.1993V12.6795C11.1979 13.0702 11.0417 13.4444 10.7649 13.7205C10.488 13.9965 10.113 14.152 9.72177 14.1529H7.47232V15.9226H9.72253C10.1492 15.9228 10.5717 15.8391 10.9659 15.6761C11.3601 15.5132 11.7183 15.2743 12.02 14.9731C12.3217 14.6719 12.5609 14.3142 12.7241 13.9206C12.8873 13.527 12.9711 13.1051 12.9709 12.6791H12.9724V9.43568H7.47232V11.2046Z" fill="url(#paint0_linear_563_4464)"/>
</g>
<defs>
<linearGradient id="paint0_linear_563_4464" x1="1.34447" y1="1.92717e-07" x2="18.5868" y2="14.2518" gradientUnits="userSpaceOnUse">
<stop stop-color="#1659DA"/>
<stop offset="1" stop-color="#16CFDA"/>
</linearGradient>
</defs>
</svg>
