<svg width="21" height="21" viewBox="0 0 21 21" fill="none" xmlns="http://www.w3.org/2000/svg">
<rect width="21.0094" height="20.5052" rx="4" fill="#0969DA"/>
<path d="M15.0094 12C14.5675 11.9998 14.1381 12.1466 13.7888 12.4175L12.3444 11.2925C12.4535 11.0425 12.5097 10.7727 12.5094 10.5C12.5094 10.4537 12.5094 10.4075 12.5044 10.3619L13.3313 10.0862C13.5929 10.4897 13.9911 10.7854 14.453 10.9192C14.9149 11.053 15.4095 11.0159 15.8462 10.8147C16.2829 10.6135 16.6326 10.2617 16.8311 9.82378C17.0296 9.38581 17.0636 8.89099 16.927 8.42996C16.7904 7.96892 16.4923 7.57254 16.0872 7.31341C15.6822 7.05429 15.1973 6.94978 14.7215 7.01901C14.2456 7.08825 13.8107 7.32661 13.4962 7.69042C13.1818 8.05423 13.009 8.51914 13.0094 8.99999C13.0094 9.04624 13.0094 9.09249 13.0144 9.13812L12.1876 9.41374C12.0063 9.13351 11.7578 8.9031 11.4647 8.7435C11.1716 8.5839 10.8432 8.50019 10.5094 8.49999C10.3991 8.50022 10.2889 8.50942 10.1801 8.52749L9.75257 7.56249C10.1217 7.26755 10.3745 6.85144 10.4661 6.38792C10.5578 5.9244 10.4824 5.44339 10.2532 5.03017C10.0241 4.61694 9.65611 4.29818 9.21441 4.13037C8.77272 3.96257 8.28587 3.95657 7.84017 4.11342C7.39447 4.27028 7.0187 4.57987 6.77946 4.98732C6.54022 5.39477 6.45295 5.87377 6.53314 6.33941C6.61332 6.80505 6.85577 7.22727 7.21752 7.53122C7.57927 7.83518 8.03695 8.00125 8.50945 7.99999C8.6198 7.99976 8.72996 7.99057 8.83882 7.97249L9.26632 8.93499C8.9038 9.22192 8.65218 9.62585 8.55448 10.0777C8.45679 10.5296 8.51907 11.0014 8.7307 11.4125L7.12382 12.84C6.71944 12.5674 6.22951 12.4516 5.74587 12.5144C5.26223 12.5771 4.81808 12.8141 4.49668 13.1809C4.17528 13.5478 3.99869 14.0192 4.00001 14.5069C4.00133 14.9946 4.18047 15.465 4.50386 15.8301C4.82724 16.1952 5.27266 16.4298 5.75664 16.4899C6.24061 16.5501 6.72991 16.4316 7.13281 16.1568C7.53571 15.882 7.82456 15.4697 7.94521 14.9972C8.06587 14.5246 8.01004 14.0243 7.7882 13.59L9.39507 12.1625C9.74299 12.3967 10.1559 12.5154 10.5751 12.5014C10.9943 12.4875 11.3985 12.3418 11.7301 12.085L13.1744 13.21C13.0657 13.4592 13.0096 13.7281 13.0094 14C13.0094 14.3956 13.1267 14.7822 13.3465 15.1111C13.5663 15.44 13.8786 15.6964 14.2441 15.8478C14.6095 15.9991 15.0117 16.0387 15.3996 15.9616C15.7876 15.8844 16.144 15.6939 16.4237 15.4142C16.7034 15.1345 16.8938 14.7781 16.971 14.3902C17.0482 14.0022 17.0086 13.6001 16.8572 13.2346C16.7058 12.8692 16.4495 12.5568 16.1206 12.3371C15.7917 12.1173 15.405 12 15.0094 12ZM15.0094 7.99999C15.2072 7.99999 15.4006 8.05864 15.565 8.16852C15.7295 8.2784 15.8576 8.43458 15.9333 8.61731C16.009 8.80004 16.0288 9.0011 15.9902 9.19508C15.9516 9.38906 15.8564 9.56725 15.7166 9.7071C15.5767 9.84695 15.3985 9.94219 15.2045 9.98078C15.0106 10.0194 14.8095 9.99956 14.6268 9.92387C14.444 9.84818 14.2879 9.72001 14.178 9.55556C14.0681 9.39111 14.0094 9.19777 14.0094 8.99999C14.0094 8.73478 14.1148 8.48042 14.3023 8.29289C14.4899 8.10535 14.7442 7.99999 15.0094 7.99999ZM7.50945 5.99999C7.50945 5.80221 7.5681 5.60887 7.67798 5.44442C7.78786 5.27997 7.94404 5.1518 8.12676 5.07611C8.30949 5.00043 8.51056 4.98062 8.70454 5.01921C8.89852 5.05779 9.0767 5.15303 9.21655 5.29289C9.35641 5.43274 9.45165 5.61092 9.49023 5.8049C9.52882 5.99888 9.50901 6.19995 9.43333 6.38268C9.35764 6.5654 9.22947 6.72158 9.06502 6.83146C8.90057 6.94134 8.70723 6.99999 8.50945 6.99999C8.24423 6.99999 7.98988 6.89464 7.80234 6.7071C7.6148 6.51956 7.50945 6.26521 7.50945 5.99999ZM6.00945 15.5C5.81167 15.5 5.61833 15.4413 5.45388 15.3315C5.28943 15.2216 5.16126 15.0654 5.08557 14.8827C5.00988 14.7 4.99008 14.4989 5.02866 14.3049C5.06725 14.1109 5.16249 13.9327 5.30234 13.7929C5.44219 13.653 5.62038 13.5578 5.81436 13.5192C6.00834 13.4806 6.20941 13.5004 6.39213 13.5761C6.57486 13.6518 6.73104 13.78 6.84092 13.9444C6.9508 14.1089 7.00945 14.3022 7.00945 14.5C7.00945 14.7652 6.90409 15.0196 6.71655 15.2071C6.52902 15.3946 6.27466 15.5 6.00945 15.5ZM9.50945 10.5C9.50945 10.3022 9.5681 10.1089 9.67798 9.94442C9.78786 9.77997 9.94404 9.6518 10.1268 9.57611C10.3095 9.50043 10.5106 9.48062 10.7045 9.51921C10.8985 9.55779 11.0767 9.65303 11.2166 9.79289C11.3564 9.93274 11.4516 10.1109 11.4902 10.3049C11.5288 10.4989 11.509 10.7 11.4333 10.8827C11.3576 11.0654 11.2295 11.2216 11.065 11.3315C10.9006 11.4413 10.7072 11.5 10.5094 11.5C10.2442 11.5 9.98988 11.3946 9.80234 11.2071C9.6148 11.0196 9.50945 10.7652 9.50945 10.5ZM15.0094 15C14.8117 15 14.6183 14.9413 14.4539 14.8315C14.2894 14.7216 14.1613 14.5654 14.0856 14.3827C14.0099 14.2 13.9901 13.9989 14.0287 13.8049C14.0672 13.6109 14.1625 13.4327 14.3023 13.2929C14.4422 13.153 14.6204 13.0578 14.8144 13.0192C15.0083 12.9806 15.2094 13.0004 15.3921 13.0761C15.5749 13.1518 15.731 13.28 15.8409 13.4444C15.9508 13.6089 16.0094 13.8022 16.0094 14C16.0094 14.2652 15.9041 14.5196 15.7166 14.7071C15.529 14.8946 15.2747 15 15.0094 15Z" fill="#EAEAEC"/>
</svg>
